<svg width="24" height="24" viewBox="0 0 24 24" fill="none" xmlns="http://www.w3.org/2000/svg">
<path fill-rule="evenodd" clip-rule="evenodd" d="M9.20686 12.1664C11.8765 12.1664 14.0164 9.99876 14.0164 7.29462C14.0164 4.59049 11.8765 2.42285 9.20686 2.42285C6.53727 2.42285 4.39732 4.59049 4.39732 7.29462C4.39732 9.99876 6.53727 12.1664 9.20686 12.1664ZM9.20711 14.5519C5.28614 14.5519 1.93848 15.1788 1.93848 17.6835C1.93848 20.1872 5.26577 20.8367 9.20711 20.8367C13.1271 20.8367 16.4758 20.2098 16.4758 17.7051C16.4758 15.2004 13.1485 14.5519 9.20711 14.5519ZM19.2843 9.29207H20.4503C20.9302 9.29207 21.3215 9.68888 21.3215 10.1756C21.3215 10.6622 20.9302 11.0591 20.4503 11.0591H19.2843V12.2C19.2843 12.6867 18.894 13.0835 18.4131 13.0835C17.9331 13.0835 17.5418 12.6867 17.5418 12.2V11.0591H16.3778C15.8969 11.0591 15.5066 10.6622 15.5066 10.1756C15.5066 9.68888 15.8969 9.29207 16.3778 9.29207H17.5418V8.1521C17.5418 7.66543 17.9331 7.26861 18.4131 7.26861C18.894 7.26861 19.2843 7.66543 19.2843 8.1521V9.29207Z" fill="white"/>
</svg>
