<svg width="71" height="71" viewBox="0 0 71 71" fill="none" xmlns="http://www.w3.org/2000/svg">
<g clip-path="url(#clip0)">
<path d="M69.235 53.3047L44.3647 7.62129C42.4679 4.48762 39.1695 2.591 35.4999 2.591C31.8304 2.591 28.5319 4.48762 26.6352 7.62129L1.76483 53.3047C-0.13151 56.5622 -0.172879 60.4378 1.68264 63.6949C3.53789 66.952 6.87744 68.89 10.6296 68.89H60.3703C64.1224 68.89 67.4621 66.952 69.3172 63.6949C71.1728 60.4378 71.1314 56.5622 69.235 53.3047Z" fill="#495A79"/>
<path d="M69.3173 63.6949C67.4621 66.952 64.1225 68.89 60.3704 68.89H35.5V2.591C39.1695 2.591 42.468 4.48775 44.3647 7.62129L69.2351 53.3048C71.1315 56.5622 71.1728 60.4378 69.3173 63.6949Z" fill="#42516D"/>
<path d="M65.6889 55.4075L40.8183 9.72376C39.7053 7.82728 37.685 6.71405 35.4997 6.71405C33.3143 6.71405 31.294 7.82742 30.181 9.72376L5.31038 55.4075C4.15606 57.3455 4.15606 59.6954 5.26943 61.6334C6.38252 63.6123 8.40269 64.7669 10.6294 64.7669H60.3702C62.5968 64.7669 64.6171 63.6123 65.7302 61.6334C66.8433 59.6954 66.8433 57.3455 65.6889 55.4075Z" fill="#FFDE33"/>
<path d="M65.7304 61.6334C64.6173 63.6123 62.5971 64.7669 60.3704 64.7669H35.5V6.71405C37.6854 6.71405 39.7057 7.82742 40.8186 9.72376L65.6893 55.4075C66.8436 57.3455 66.8436 59.6954 65.7304 61.6334Z" fill="#FFBC33"/>
<path d="M35.5 60.6438C33.2271 60.6438 31.377 58.7936 31.377 56.5207C31.377 54.2478 33.2271 52.3976 35.5 52.3976C37.7729 52.3976 39.6231 54.2478 39.6231 56.5207C39.6231 58.7936 37.7729 60.6438 35.5 60.6438Z" fill="#495A79"/>
<path d="M39.6231 44.1515C39.6231 46.4244 37.7729 48.2746 35.5 48.2746C33.2271 48.2746 31.377 46.4244 31.377 44.1515V23.5362C31.377 21.2632 33.2271 19.4131 35.5 19.4131C37.7729 19.4131 39.6231 21.2632 39.6231 23.5362V44.1515Z" fill="#495A79"/>
<path d="M39.6231 56.5207C39.6231 54.2478 37.7729 52.3976 35.5 52.3976V60.6438C37.7729 60.6438 39.6231 58.7936 39.6231 56.5207Z" fill="#42516D"/>
<path d="M39.6231 44.1515V23.5362C39.6231 21.2632 37.7729 19.4131 35.5 19.4131V48.2746C37.7729 48.2746 39.6231 46.4244 39.6231 44.1515Z" fill="#42516D"/>
</g>
<defs>
<clipPath id="clip0">
<rect width="70.3671" height="70.3671" fill="white" transform="translate(0.316406 0.556946)"/>
</clipPath>
</defs>
</svg>
