<svg width="11" height="11" viewBox="0 0 11 11" fill="none" xmlns="http://www.w3.org/2000/svg">
<path d="M9.77778 0H1.22222C0.55 0 0 0.55 0 1.22222V9.77778C0 10.45 0.55 11 1.22222 11H9.77778C10.45 11 11 10.45 11 9.77778V1.22222C11 0.55 10.45 0 9.77778 0ZM8.55556 3.66667H7.51667L4.46111 9.16667H2.44444C1.93722 9.16667 1.52778 8.75722 1.52778 8.25C1.52778 7.74278 1.93722 7.33333 2.44444 7.33333H3.48333L6.53889 1.83333H8.55556C9.06278 1.83333 9.47222 2.24278 9.47222 2.75C9.47222 3.25722 9.06278 3.66667 8.55556 3.66667Z" fill="#0099FF"/>
</svg>
