<svg width="15" height="11" viewBox="0 0 15 11" fill="none" xmlns="http://www.w3.org/2000/svg">
<path d="M5.875 9.375C5.875 9.82373 6.23877 10.1875 6.6875 10.1875H8.3125C8.76123 10.1875 9.125 9.82373 9.125 9.375C9.125 8.92627 8.76123 8.5625 8.3125 8.5625H6.6875C6.23877 8.5625 5.875 8.92627 5.875 9.375ZM1 0.4375C0.551269 0.4375 0.1875 0.801269 0.1875 1.25C0.1875 1.69873 0.551269 2.0625 1 2.0625H14C14.4487 2.0625 14.8125 1.69873 14.8125 1.25C14.8125 0.801269 14.4487 0.4375 14 0.4375H1ZM2.625 5.3125C2.625 5.76123 2.98877 6.125 3.4375 6.125H11.5625C12.0112 6.125 12.375 5.76123 12.375 5.3125C12.375 4.86377 12.0112 4.5 11.5625 4.5H3.4375C2.98877 4.5 2.625 4.86377 2.625 5.3125Z" fill="#0099FF"/>
</svg>
