<svg width="20" height="20" viewBox="0 0 20 20" fill="none" xmlns="http://www.w3.org/2000/svg">
<path d="M9.96745 13.7642V11.5742" stroke="#626262" stroke-width="1.5" stroke-linecap="round" stroke-linejoin="round"/>
<path d="M17.5745 9.56445L17.5504 9.58195C15.532 10.8253 12.867 11.5761 9.96368 11.5761C7.06035 11.5761 4.40285 10.8253 2.38535 9.58195L2.36035 9.56445" stroke="#626262" stroke-width="1.5" stroke-linecap="round" stroke-linejoin="round"/>
<path fill-rule="evenodd" clip-rule="evenodd" d="M2.29199 11.1259C2.29199 5.99921 4.21116 4.29004 9.96783 4.29004C15.7253 4.29004 17.6437 5.99921 17.6437 11.1259C17.6437 16.2525 15.7253 17.9617 9.96783 17.9617C4.21116 17.9617 2.29199 16.2525 2.29199 11.1259Z" stroke="#626262" stroke-width="1.5" stroke-linecap="round" stroke-linejoin="round"/>
<path d="M12.6865 4.47449V3.94949C12.6865 2.89616 11.9174 2.04199 10.9699 2.04199H8.96569C8.01819 2.04199 7.24902 2.89616 7.24902 3.94949V4.47449" stroke="#626262" stroke-width="1.5" stroke-linecap="round" stroke-linejoin="round"/>
</svg>
